<svg xmlns="http://www.w3.org/2000/svg" width="151.956" height="30.604" viewBox="0 0 151.956 30.604">
  <path id="Designhoo-logo" d="M2.268,0h7.28C14.14,0,17.892-1.624,20.1-4.984a10.778,10.778,0,0,0,1.68-6.048q0-5.25-3.444-8.064a13.494,13.494,0,0,0-8.82-2.828H2.268ZM7.784-16.856H9.576a7.025,7.025,0,0,1,4.676,1.54A5.253,5.253,0,0,1,16.128-11a5.336,5.336,0,0,1-1.848,4.34,7.077,7.077,0,0,1-4.732,1.54H7.784ZM39.34-6.132a15.04,15.04,0,0,0,.084-1.96,6.572,6.572,0,0,0-2.268-5.152,7.625,7.625,0,0,0-5.376-2.044,7.823,7.823,0,0,0-5.628,2.268A7.3,7.3,0,0,0,23.8-7.5a7.417,7.417,0,0,0,2.352,5.628A8.344,8.344,0,0,0,32.088.336c3.108,0,5.32-1.148,6.664-3.444L35.2-5.46a3.9,3.9,0,0,1-3.164,1.652A2.958,2.958,0,0,1,28.98-6.132Zm-7.644-5.1A2.41,2.41,0,0,1,34.244-9.1h-5.18A2.751,2.751,0,0,1,31.7-11.228ZM54.04-4.676c0-2.576-2.1-4.312-5.712-4.984-1.2-.224-1.792-.588-1.792-1.092,0-.476.532-.812,1.344-.812a2.639,2.639,0,0,1,2.436,1.4L53.7-12.152C52.7-14.14,50.54-15.288,47.74-15.288a6.825,6.825,0,0,0-4.368,1.428,4.253,4.253,0,0,0-1.792,3.528c0,2.436,1.848,4,5.516,4.76,1.2.252,1.82.644,1.82,1.2s-.616.924-1.372.924a3.073,3.073,0,0,1-3-1.792L41.132-3.22C42.252-.84,44.464.336,47.74.336A6.705,6.705,0,0,0,52.388-1.12,4.608,4.608,0,0,0,54.04-4.676Zm5.4-12.264a2.978,2.978,0,0,0,2.184-.9,2.986,2.986,0,0,0,.924-2.184,2.978,2.978,0,0,0-.9-2.184,2.959,2.959,0,0,0-2.212-.924,3.119,3.119,0,0,0-3.108,3.108,2.986,2.986,0,0,0,.924,2.184A3.071,3.071,0,0,0,59.444-16.94Zm-2.688,1.988V0h5.376V-14.952ZM76.048-.224c0,2.128-1.26,3.136-3.248,3.136A3.729,3.729,0,0,1,69.244.84l-4.06,2.352c1.26,2.688,3.5,4.284,7.784,4.284A8.784,8.784,0,0,0,79.044,5.4a7.285,7.285,0,0,0,2.324-5.74V-14.952H76.1v1.82H76.02a4.993,4.993,0,0,0-4.144-2.016A6.612,6.612,0,0,0,66.92-13.02a7.457,7.457,0,0,0-2.072,5.432A7.655,7.655,0,0,0,66.78-2.24,6.557,6.557,0,0,0,71.848-.112,4.974,4.974,0,0,0,75.964-2.24h.084Zm-.784-5.32a2.75,2.75,0,0,1-2.072.868,2.83,2.83,0,0,1-2.072-.84,2.94,2.94,0,0,1-.84-2.1,2.83,2.83,0,0,1,.84-2.072,2.83,2.83,0,0,1,2.072-.84,2.83,2.83,0,0,1,2.072.84,2.724,2.724,0,0,1,.84,2.044A2.94,2.94,0,0,1,75.264-5.544ZM99.736,0V-9.044c0-2.912-1.288-6.216-5.236-6.216a5.41,5.41,0,0,0-4.284,2.184H90.16v-1.876H84.868V0h5.32V-8.092a2.076,2.076,0,0,1,2.184-2.3,2.12,2.12,0,0,1,2.044,2.3V0Zm17.248,0V-9.212c0-3.584-1.932-6.048-5.6-6.048a5.416,5.416,0,0,0-4.48,2.212v-9.744h-3.332V0H106.9V-8.316c0-2.268,1.344-3.78,3.444-3.78,2.212,0,3.3,1.484,3.3,3.724V0Zm11.2-15.26a7.8,7.8,0,0,0-5.6,2.24A7.379,7.379,0,0,0,120.26-7.5a7.355,7.355,0,0,0,2.3,5.516,7.8,7.8,0,0,0,5.6,2.24,7.645,7.645,0,0,0,5.572-2.24,7.478,7.478,0,0,0,2.3-5.572,7.293,7.293,0,0,0-2.3-5.488A7.693,7.693,0,0,0,128.184-15.26Zm-3.276,4.4a4.192,4.192,0,0,1,3.248-1.372,4.093,4.093,0,0,1,3.22,1.372,4.817,4.817,0,0,1,1.26,3.36,4.924,4.924,0,0,1-1.232,3.36,4.093,4.093,0,0,1-3.22,1.372,4.215,4.215,0,0,1-3.248-1.4,4.935,4.935,0,0,1-1.26-3.388A4.735,4.735,0,0,1,124.908-10.864Zm21.476-4.4a7.8,7.8,0,0,0-5.6,2.24A7.379,7.379,0,0,0,138.46-7.5a7.355,7.355,0,0,0,2.3,5.516,7.8,7.8,0,0,0,5.6,2.24,7.645,7.645,0,0,0,5.572-2.24,7.478,7.478,0,0,0,2.3-5.572,7.293,7.293,0,0,0-2.3-5.488A7.693,7.693,0,0,0,146.384-15.26Zm-3.276,4.4a4.192,4.192,0,0,1,3.248-1.372,4.093,4.093,0,0,1,3.22,1.372,4.817,4.817,0,0,1,1.26,3.36,4.924,4.924,0,0,1-1.232,3.36,4.093,4.093,0,0,1-3.22,1.372,4.215,4.215,0,0,1-3.248-1.4,4.935,4.935,0,0,1-1.26-3.388A4.735,4.735,0,0,1,143.108-10.864Z" transform="translate(-2.268 23.128)" fill="#18294a"/>
</svg>
